<svg xmlns="http://www.w3.org/2000/svg" viewBox="0 0 320 240" fill="none"><rect x="8" y="14" width="304" height="212" rx="22" fill="#f0ede3"/><path d="M68 83a8 8 0 0 1 8-8h64l18 17h86a8 8 0 0 1 8 8v87a8 8 0 0 1-8 8H76a8 8 0 0 1-8-8V83Z" fill="#f9f7f0" stroke="#143f3c" stroke-width="2.5" stroke-linejoin="round"/><path d="M119 53h63l24 24v89h-87V53Z" fill="#f9f7f0" stroke="#143f3c" stroke-width="2.5" stroke-linejoin="round"/><path d="M182 53v25h24M136 102h51M136 117h40M136 132h45" stroke="#143f3c" stroke-width="2.5" stroke-linecap="round" stroke-linejoin="round"/><path d="M65 133h74l13 12h105l-13 48H76l-11-60Z" fill="#e5d4b7" stroke="#143f3c" stroke-width="2.5" stroke-linejoin="round"/><circle cx="233" cy="88" r="20" fill="#f9f7f0" stroke="#143f3c" stroke-width="2.5"/><path d="m224 87 6 6 12-12" stroke="#143f3c" stroke-width="2.5" stroke-linecap="round" stroke-linejoin="round"/></svg>